<svg xmlns="http://www.w3.org/2000/svg" width="259" height="16"><path d="M16 7.7c0 1-.4 2-1.1 2.9s-1.7 1.6-2.9 2.1-2.6.8-4 .8c-.4 0-.8 0-1.3-.1-1.2 1-2.5 1.8-4.1 2.2-.3.1-.6.1-1 .2-.1 0-.2 0-.3-.1s-.1-.2-.2-.3v-.3l.1-.1.1-.1c0-.1.1-.1.1-.1s.1-.2.3-.3q.15-.3.3-.3c.1 0 .2-.2.3-.4s.2-.3.3-.5c.1-.1.2-.3.2-.5s.2-.4.2-.6c-.9-.5-1.7-1.2-2.2-2S0 8.6 0 7.7c0-.8.2-1.5.6-2.2s1-1.3 1.7-1.8c.8-.5 1.6-.9 2.6-1.2S6.9 2 8 2c1.5 0 2.8.3 4 .8s2.2 1.2 2.9 2.1c.7.8 1.1 1.8 1.1 2.8m6.3-2.3c.1.1.7.5 1.6 1.1.9.7 1.6 1.1 2.1 1.5.1 0 .2.1.4.2.1.1.3.2.4.3s.2.2.4.3c.1.1.3.2.4.2.1.1.3.1.4.1s.3-.1.4-.1.2-.1.4-.2c.1-.1.3-.3.4-.3s.2-.1.3-.2l.4-.2c.5-.4 1.7-1.2 3.7-2.6.4-.3.7-.6 1-1s.4-.8.4-1.2-.1-.6-.3-.9c-.3-.3-.5-.4-.9-.4H22.2c-.4 0-.7.2-.9.4s-.3.6-.3 1 .2.7.4 1.1q.45.6.9.9M30.5 9c-.4.2-.6.4-.8.5s-.5.3-.8.4c-.3.2-.6.2-.9.2s-.6-.1-.9-.2c-.4-.1-.6-.3-.8-.4-.3-.1-.5-.3-.8-.5q-1.05-.75-3.9-2.7c-.3-.2-.6-.4-.8-.7v6.3c0 .4.1.6.4.9.2.3.5.4.9.4h11.6c.4 0 .7-.2.9-.4.3-.2.4-.5.4-.9V5.6c-.2.3-.5.5-.6.7-1.7 1.2-3 2-3.9 2.7M253.853 4.607c.642 0 .962-.107 1.39-.642.428-.32.642-.748.642-1.39s-.107-.962-.642-1.39c-.32-.428-.748-.642-1.39-.642s-.963.107-1.39.642c-.428.534-.642.748-.642 1.39s.107.963.642 1.39c.534.535.855.642 1.39.642m2.506 1.687c-1.01.773-1.818.296-2.934.131l-.107-.32c0-.107 0-.321-.107-.428v-.214c-.428-.107-.748-.107-1.07-.428-.641.32-1.069.749-1.39 1.604-.32.642-.427 1.605-.641 2.674 0 .428-.372.88-.372 1.094-.748 1.604-2.408 2.348-4.12 2.776l.97 2.07c1.283-.32 2.684-.66 3.433-1.303.428-.32 1.051-.787 1.693-1.535l.32-.321c.108-.107.108-.107.322-.107.107 0 .107 0 .32.107 1.712.748 2.354 1.706 3.21 2.99l1.912-.963c-.748-1.39-1.272-2.455-2.342-3.418-.32-.32-.749-.427-1.07-.748l-.427-.321c-.107 0-.321-.107-.107-.428 0-.32.107-.428.428-.428h.32l1.694-.156c.641-.107.731-.19 1.587-.617zM213.45 2.6h1.84l-4.02 5.083L216 14.6h-3.703l-2.902-4.194-3.317 4.194h-1.843l4.3-5.437L204 2.6h3.797l2.62 3.834zm-.647 10.783h1.02l-6.582-9.63h-1.095zM232.403 8.901l.094 5.094a4.3 4.3 0 0 0-.752-.08h-.004a4.7 4.7 0 0 0-.786.085l.03-.005.093-5.094q-.288-.497-1.214-2.13-.926-1.631-1.559-2.698-.635-1.066-1.305-2.068c.232.066.5.105.776.108h.003q.431-.013.826-.113l-.027.006q.454.799.962 1.653.509.854 1.204 1.992.695 1.139 1 1.636.266-.44.788-1.279.522-.84.846-1.369.324-.53.756-1.268.433-.738.77-1.366c.232.064.497.1.771.101q.44-.002.846-.105l-.024.005q-.2.28-.433.639-.233.36-.356.566-.126.208-.408.691-.28.484-.352.605-1.052 1.786-2.544 4.394zM188.4 6.3c-.3-.3-.7-.5-1.1-.6.5-.4.8-.9.8-1.6 0-1.1-.9-2-2.1-2s-2.1.9-2.1 2c0 .6.3 1.2.8 1.6-.3.1-2.2.9-2.4 3.2 0 .7.4.8.4.8s.2.2.4.2c.1.2.1.3.3.4 0 0 .2.5 1.9.6v-.1c.2-2.7 2.2-4 3.1-4.5" style="fill:#eee;fill-opacity:1"/><path d="M196.8 9.7c-.5-1.7-1.9-2.8-3.4-3.3.7-.6 1.1-1.4 1.1-2.3 0-1.7-1.4-3-3.1-3s-3.1 1.4-3.1 3c0 1 .5 1.8 1.2 2.4-.4.2-3.2 1.4-3.6 4.8 0 1 .6 1.2.6 1.2s.2.2.6.3c.1.2.2.4.4.6 0 0 .3.7 3.1.9h2.1c2.9-.2 3.2-1.1 3.2-1.1.1-.1.1-.2.2-.4 1.2-.3 1.1-1.9.7-3.1m-21.3-.1c.1-.4.1-.7.1-1.1 0-3.9-3.1-7-7-7-.4 0-.7 0-1.1.1-.6-.4-1.4-.6-2.2-.6-2.3 0-4.2 1.9-4.2 4.2 0 .8.2 1.6.6 2.2-.1.4-.1.7-.1 1.1 0 3.9 3.1 7 7 7 .4 0 .7 0 1.1-.1.6.4 1.4.6 2.2.6 2.3 0 4.2-1.9 4.2-4.2 0-.8-.2-1.5-.6-2.2m-3.6 2.1c-.3.4-.7.8-1.3 1s-1.2.4-2 .4c-.9 0-1.7-.2-2.3-.5-.4-.2-.8-.6-1.1-.9-.3-.4-.4-.8-.4-1.2q0-.3.3-.6c.2-.2.4-.2.6-.2s.4.1.5.2.3.3.4.5c.1.3.2.5.4.7.1.2.3.3.6.5.2.1.6.2 1 .2.6 0 1-.1 1.4-.4.3-.2.5-.5.5-.9 0-.3-.1-.5-.3-.7s-.4-.3-.7-.4q-.45-.15-1.2-.3c-.7-.1-1.2-.3-1.7-.5s-.8-.5-1.1-.8-.4-.8-.4-1.3.1-.9.4-1.3q.45-.6 1.2-.9c.5-.2 1.2-.3 1.9-.3.6 0 1.1.1 1.5.2s.8.3 1.1.5.5.5.6.7.2.5.2.7q0 .3-.3.6t-.6.3c-.2 0-.4-.1-.5-.2s-.2-.3-.4-.5c-.2-.3-.4-.6-.6-.8s-.6-.3-1.1-.3q-.75 0-1.2.3c-.3.2-.4.4-.4.7 0 .2 0 .3.1.4s.2.2.4.3.4.2.5.2c.2.1.5.1.9.2.5.1 1 .2 1.4.4.4.1.8.3 1.1.5s.5.5.7.8.3.7.3 1.1c0 .7-.1 1.2-.4 1.6M149 .766h-4.1c-2.1 0-3.8 1.5-3.8 3.2s1.1 3.1 3.1 3.1h.4c-.1.2-.2.5-.2.8 0 .5.3.7.6 1.1h-.7c-2.4 0-4 1.6-4 3.2 0 1.5 2 2.5 4.4 2.5 2.7 0 4.4-1.5 4.4-3.1 0-1.2-.3-1.9-1.6-2.8-.4-.3-1.2-.9-1.2-1.3 0-.5.1-.7.8-1.2.7-.6 1.2-1.3 1.2-2.2 0-1-.4-1.9-1.2-2.3h1.1zm-1.4 10.5c0 .1.1.3.1.4 0 1.2-.8 2.2-3.1 2.2-1.6 0-2.8-1-2.8-2.3 0-1.2 1.4-2.3 3-2.3.4 0 .7.1 1.1.2.8.7 1.5 1.1 1.7 1.8m-2.6-4.8c-1.2 0-2.2-1-2.4-2.5-.2-1.4.5-2.5 1.6-2.5s2 1.2 2.2 2.7c.3 1.3-.3 2.3-1.4 2.3m9 .4v-1.9h-.9v1.9h-1.9v.9h1.9v1.9h.9v-1.9h1.9v-.9M126.303 10.184V16h3.624v-5.816h2.704l.562-2.674h-3.265v-.946c0-1.414.634-1.955 2.27-1.955.51 0 .92.01 1.158.032V2.216c-.447-.107-1.541-.216-2.172-.216-3.34 0-4.881 1.38-4.881 4.359v1.15h-2.063v2.675zM113.52 3.747a1.97 1.97 0 0 0-1.383-1.393c-1.22-.328-6.112-.328-6.112-.328s-4.892 0-6.112.328a1.97 1.97 0 0 0-1.383 1.393c-.327 1.229-.327 3.79-.327 3.79s0 2.562.327 3.79a1.93 1.93 0 0 0 1.383 1.37c1.22.329 6.112.329 6.112.329s4.892 0 6.112-.33a1.93 1.93 0 0 0 1.383-1.37c.327-1.227.327-3.789.327-3.789s0-2.562-.327-3.79m-9.095 6.115V5.211l4.09 2.326zM85.71.479h.5c.9.1 1.7.2 2.4.4s1.2.6 1.7 1.1l.1.1c.8.8 1.3 1.9 1.7 3.1.1.4.3.8.3 1.3v.3c-.1 1.3-.7 2.1-1.3 2.8 0 0 0 .1-.1.1s-.1.1-.2.2c0 0-.1 0-.1.1-.3.3-.6.5-.9.7s-.7.4-1 .7l-.1.1c-.3.4-.6.8-.6 1.5v.2c0 .3.1.6.1.9v.1c0 .1 0 .3-.2.3h-.1s-.2 0-.3-.1c0-.1 0-.2-.1-.2-.1-.3-.1-.5-.1-.8v-.5c.1-.9.4-1.6.9-2.2l.1-.1c.2-.2.5-.4.8-.6s.5-.4.8-.7l.1-.1.1-.1c.3-.3.5-.6.7-1s.4-.8.4-1.3v-.3c-.1-1.5-.6-2.7-1.3-3.5l-.1-.1c-.8-.8-1.9-1.2-3.3-1.3h-.8c-.4 0-.7 0-1.1.1-.3.1-.6.1-.9.3-.4.2-.6.5-.9.9l-.3.3c-.3.2-.3-.3-.3-.6v-.5c0-.2 0-.4.1-.6v-.2s.1-.1.2-.1c.2-.1.4-.2.5-.2.5-.2 1-.4 1.6-.5zm0 0q-.15 0 0 0m5.7 6.1q0 .15 0 0m0 .1s0 .1 0 0c0 .1 0 0 0 0" style="fill:#eee;fill-opacity:1"/><path d="M84.01 7.979c0-.6.2-1.1.8-1.1.3 0 .5.1.7.2.2.2.3.4.3.7v.1h.1l.4-.4c.2-.1.4-.3.7-.3h.1c.4.1.5.4.5.9v.1c0 .9-.5 1.3-.9 1.8 0 .1-.1.2-.2.3s-.1.2-.3.2-.1-.4-.1-.6c.1-.2.2-.3.4-.5s.3-.5.4-.8c.1-.1.1-.2.1-.4 0-.1-.1-.2-.2-.2h-.1c-.4.1-.6.4-.9.6l-.1.1c-.1 0-.1.1-.2.1-.1-.1-.1-.3-.2-.6 0-.3 0-.6-.3-.7-.1 0-.2 0-.3.1l-.1.1c-.3.4-.2 1.1-.1 1.7 0 .2 0 .3-.1.4s-.3 0-.4 0c0-.1-.1-.2-.1-.3-.1-.3-.1-.6-.1-.9.2-.5.2-.6.2-.6m2.9-.9q.15 0 0 0 .15 0 0 0m-.2.7s.1 0 0 0m-2 1.2c0 .1 0 0 0 0m-1.6 2.5c-.1-.2-.4-.6-.3-.9.1-.1.2-.2.3-.2h.1c.1 0 .2.1.3.1l.1.1c.2.2.4.5.6.7l.1.1c.4.3.8.6 1.4.7h.2c.4 0 .6-.1 1-.2h.1c.1 0 .2.1.2.2s-.1.3-.2.3c-.1.1-.3.1-.5.2-.2 0-.4.1-.6.1h-.3c-1.1-.2-1.9-.6-2.5-1.2 0 .1 0 0 0 0m-.3.6s.1 0 0 0c.1 0 0 0 0 0m-.1.6c0-.1-.1-.1-.2-.2s-.1-.2-.1-.3.2-.1.4-.1h.1s.2.1.3.1l.1.1.1.1c.6.5 1.4.9 2.4 1h.8c.1 0 .2-.1.3 0 .2.1.3.6.1.7-.1.1-.3.1-.4.1h-.7c-1.4-.2-2.3-.7-3.2-1.5.1.1.1 0 0 0m2.9-.1q.15 0 0 0 .15 0 0 0 .15 0 0 0m.1 0s.1 0 0 0c.1 0 0 0 0 0m1.8.4s0-.1 0 0m0 0s0 .1 0 0m-1.6.4" style="fill:#eee;fill-opacity:1"/><path d="M82.71 14.479c-.1-.1-.3-.4-.2-.7 0-.1.1-.1.2-.2s.1-.1.3-.1c.1 0 .1.1.2.1l.1.1c.2.2.2.4.4.5.1.1.3.2.5.3s.4.2.5.2l1.2.3h.2c.3 0 .6-.1.9-.2.1 0 .2-.1.3-.1.2 0 .1.2 0 .3l-.1.1c-.3.3-.8.4-1.3.5h-.3c-.6 0-1.1-.2-1.6-.3-.5-.2-.9-.4-1.3-.8m5.5-.4q0 .15 0 0 0 .15 0 0m2-12.1.1.1s-.1 0-.1-.1m.6 7.9c0-.1.1-.1.2-.2zm-.1.1q.15-.15 0 0 .15-.15 0 0m-2 1.5q.15-.15 0 0 .15-.15 0 0m-.3-.8q0-.15 0 0 0-.15 0 0m1.6-1.4q.15 0 0 0 .15 0 0 0m.1 0 .1-.1zm.1-.2c.1 0 0 0 0 0m-.2-6.1.1.1c-.1 0-.1-.1-.1-.1m-2.8 12.1s.1 0 0 0c.1 0 0 0 0 0" style="fill:#eee;fill-opacity:1"/><path d="m83.11 13.579.1.1s-.1 0-.1-.1m1.7-6.2q.15-.15 0 0m-1.7 4.1s0 .1 0 0c0 .1 0 0 0 0m1.1-.2q0 .15 0 0 0 .15 0 0-.15 0 0 0m-1.5 1.4c.1 0 .1.1 0 0q.15.15 0 0m.5-.4.1.1s0-.1-.1-.1m0-.1q0 .15 0 0 0 .15 0 0m2.5-11.7s.1 0 0 0q.15 0 0 0c.1 0 0 0 0 0m.1 0q.15 0 0 0 .15 0 0 0m.1 0q.15 0 0 0c.1 0 0 0 0 0m.1 0q.15 0 0 0c.1 0 0 0 0 0m.5 1.2q.15 0 0 0m-.7 0q.15 0 0 0m-3.5.8s0 .1 0 0q0 .15 0 0 0 .15 0 0m10.1 4.1c0 .1 0 0 0 0m0 .2q0 .15 0 0m-9.3 3.6s.1 0 0 0q.15 0 0 0m4.4 2.4s0 .1 0 0c0 .1 0 0 0 0m-1.4 1.3s.1 0 0 0m-.3 1.5s.1 0 0 0q.15 0 0 0m.3-13.9h.4zm-3.8.6v.1zm3.6 11.8q.15 0 0 0 .15 0 0 0m0 .9h.2zm-.3.6s.1 0 0 0c.1 0 0 0 0 0m-9.398-6.652-.1-.2c-.3 0-.4-.3-.7-.5-.2-.2-.5-.3-.7-.4.7-.3 1.1-.8 1.4-1.4.2-.5.1-.9-.1-1.3-.3-.4-.6-.7-1.1-.9-.3-.1-.7-.1-1 0l-.7.2.2-.5c.2-.7.2-1.4-.2-2l-.1-.1c-.3-.5-.8-.9-1.4-1-.7-.2-1.3-.1-1.9.2q-.9.45-1.2 1.5v.2l-.2-.2-.2-.4c-.4-.5-.8-.8-1.4-1-.5-.1-.9-.1-1.3.2-.5.3-.7.7-.8 1.3q-.15.9.3 1.8l.2.2-.5-.2c-.6-.2-1.3-.1-1.9.3-.6.3-1 .8-1.3 1.4-.2.6-.2 1.2.1 1.7.1.2.3.4.5.6.3.3.6.4 1 .5h.2l-.4.3q-.45.45-.6.9c-.1.4-.1.8.2 1.1.1.2.2.3.4.4q.3.3.6.3c.5.1 1 .1 1.5-.1l-.4.6-.1.3c-.2.7-.2 1.3.2 1.9.2.2.3.5.5.6.3.2.6.4 1 .5.6.2 1.3.2 1.9-.2q.9-.45 1.2-1.5v-.1q.6.75 1.2.9c.4.1.9.1 1.3-.2.4-.2.6-.6.8-1 .1-.5.1-.9 0-1.5.2.2.4.3.7.3.7.2 1.3.2 1.9-.1q.9-.45 1.2-1.5c.2-.6.1-1.3-.2-1.9m-3-3.5h.1c.3-.2.7-.2 1.1-.2s.6.2.8.5l.1.3v.2c-.2.4-.5.7-1 .9-.2.1-.5.2-.7.2l-2.7.3v-.3l.1-.1zm-3.8-2.5v-.2c.1-.4.4-.8.8-1s.8-.3 1.2-.1.7.4.9.8c.1.2.2.5.2.8l-.1.4c-.1.2-.2.5-.3.6l-1.9 2.4c-.2-.2-.4-.3-.6-.4l-.2-2.4zm-3.4-.9c.1-.1.3-.1.5 0 .4.1.7.4 1 .9.1.2.2.4.3.7l.4 2.6-.3.1-1.9-2.1-.1-.2q-.3-.6-.3-1.2c0-.4.2-.6.4-.8m-3.4 5.4c-.2-.3-.2-.6 0-1s.4-.7.8-.9c.3-.2.6-.2 1.1-.1l.6.2 1.9 1.4q-.3.3-.3.6l-3.1.4h-.2c-.4-.1-.6-.2-.8-.6m2.5 3.4c-.4.2-.8.3-1.1.2-.3 0-.6-.1-.7-.3l-.1-.2v-.2q.15-.45.9-.9c.3 0 .5-.1.7-.2l1.7-.3.2.4.1.2c-.4.3-.6.5-.9.7l-.6.5zm3.4 3.1v.2c-.2.4-.4.7-.8.9s-.8.3-1.2.2-.8-.4-.9-.7c-.1-.2-.2-.5-.2-.7l.1-.5c0-.2.2-.4.3-.6l1.8-2.2c.2-.1.4.1.7.1 0 .7.1 1.5.2 2.4zm.3-4.1c-.4 0-.8-.2-1-.4-.3-.3-.4-.6-.4-1s.1-.7.4-1c.3-.2.6-.4 1-.4s.8.2 1 .4c.3.3.4.6.4 1s-.1.8-.4 1c-.3.3-.6.4-1 .4m2.6 4.2c-.2.1-.3.1-.5.1-.4-.1-.7-.4-1-1l-.3-.7-.3-1.9.4-.1.2-.1.9.9.6.7.1.2c.2.4.3.7.3 1.1s-.2.7-.4.8m4-3.3c-.1.4-.4.8-.7.9-.4.2-.8.3-1.2.1-.3-.1-.4-.2-.6-.3l-2.3-1.9.2-.3.1-.2 2.4-.2h1.1c.3.1.6.3.8.6.2.2.3.6.3.9zM48.6 0C44.4 0 41 3.4 41 7.6s3.4 7.6 7.6 7.6 7.6-3.4 7.6-7.6C56.1 3.4 52.7 0 48.6 0m6.2 5.3h-.4v.2h-.1l-.1-.1-.7-.2v-.4l-.8.1-.3.1h-.5l-.4.2v.4l-.8.6.1.3h.2v.2h-.1v.6l.7.8h.9l.2-.1h.3v.2h.5l-.1.6.5.9-.3.5v.2l.2.2v.6l.3.4v.4c-1.3 1.6-3.4 2.7-5.6 2.7-3.7 0-6.8-2.8-7.2-6.5V7.1c.1-.8.3-1.6.6-2.3v.4l.3.1v.6l.3.5h.2v-.2l-.3-.4-.1-.4h.2l.1.4.4.6v.2l.3.4.6.2V7h.3v.2h.2l.3.1.4.5h.6l.1.5-.4.3V9l-.1.3.6.7v.2l.2.1.5.3v1.3h.2l-.2.6.3.3v.6l.3.6.4.4h.4v-.1l-.3-.3v-.1l.1-.2v-.2h-.2l-.1-.1.2-.2v-.1l-.2-.1v-.1h.3l.4-.2.1-.3.5-.6-.1-.5.1-.2h.4l.3-.2.1-.9.3-.4.1-.3-.3-.1-.2-.3h-.6l-.5-.2v-.4l-.2-.3h-.5l-.3-.4-.2-.1v.1h-.4l-.2-.2-.5-.1-.4.4-.6-.1v-.7l-.4-.1.2-.3-.1-.2-.6.4h-.4v-.2l.1-.3.2-.4.5-.2h.9v.3l.3.1v-.5l.2-.2.5-.3v-.2l.5-.5.5-.3.3-.3h.1l.1.1.1-.1h-.2v-.2l.1-.1h.2l-.2.1v.1h.3v-.1h.1v.1l-.1.1v.1l.4.1h.1v-.2l-.3-.1v-.1l.3-.1v-.3l-.3-.2v-.4l-.4.2H48v-.3l-.5-.1-.2.2V3l-.3.1-.2.3h-.2V3h-.4l-.2-.1v-.3l.7-.4.3-.1v.2h.2v-.1h.2-.1v-.1h.2l.1-.1.5-.1.2.2-.6.3.7.2.1-.2h.5l.1-.2-.2-.1v-.5l-.7-.3-.5.1-.3.1v.3h-.3v-.2l.3-.2h-.6l-.1.1h.2v.2h-.3v.1h-.5v-.3h.4l.3-.3-.1-.1-.4.4H46l-.2-.3h-.4l-.5.3h.4v.1l-.1.1h.4l.1.2h-.5v-.1l-.3-.1-.2-.1h-.3C45.6.8 47 .3 48.5.3c1.9 0 3.6.7 4.9 1.9l-.3.1-.1.2v.2h.2l.1.3.3-.1v.4h-.7l-.3.4-.4.1-.1.3h.2v.2l-.4-.1-.4.1-.1.2.1.4.2.1h.5l.1-.2.4-.5h.2l.2-.2v.2l.9.3v.1h-.3l.1.1h.2l.2-.1v-.2h.1-.1l-.4-.2-.1-.3h.3l.1.1.3.2v.3l.3.3.1-.4.2-.1v.3l.2.2h.1c.1.2.2.4.2.6h-.3z" style="fill:#eee;fill-opacity:1"/></svg>