<svg xmlns="http://www.w3.org/2000/svg" width="16" height="16"><path d="M8 0C3.6 0 0 3.6 0 8s3.6 8 8 8 8-3.6 8-8-3.6-8-8-8zm0 14.2c-3.4 0-6.2-2.8-6.2-6.2 0-3.4 2.8-6.2 6.2-6.2 3.4 0 6.2 2.8 6.2 6.2 0 3.4-2.8 6.2-6.2 6.2z" opacity=".2"/><path d="m11.1 2.6.9-1.5C10.8.4 9.5 0 8 0v1.8c1.1 0 2.2.3 3.1.8z"><animateTransform fill="remove" accumulate="none" additive="replace" attributeName="transform" attributeType="xml" calcMode="linear" dur="1s" from="0 8 8" repeatCount="indefinite" restart="always" to="360 8 8" type="rotate"/></path></svg>